<?xml version="1.0" encoding="UTF-8" standalone="no"?>
<svg xmlns="http://www.w3.org/2000/svg" viewBox="0 0 500 200" width="500" height="200">
  <!-- P symbol in black -->
  <g transform="translate(-20, 0)">
    <path d="M216,120 C216,82 259,80 259,80 L300,80 C300,80 334,82 334,105 C334,128 307,130 300,130 L259,130 L259,180 L216,180 L216,120 Z" fill="#000000"/>
    <path d="M259,130 L259,110 L290,110 C290,110 297,110 297,120 C297,130 290,130 290,130 L259,130 Z" fill="#FFFFFF"/>
  </g>

  <!-- Priority Parcel text -->
  <g transform="translate(20, 0)">
    <!-- "Priority" text -->
    <path d="M358,90 L368,90 C368,90 379,90 379,100 C379,110 368,110 368,110 L358,110 L358,125 L350,125 L350,90 L358,90 Z M358,102 L368,102 C368,102 372,102 372,100 C372,98 368,98 368,98 L358,98 L358,102 Z" fill="#000000"/>
    <path d="M382,90 L389,90 L389,100 L397,90 L405,90 L397,100 L407,125 L399,125 L392,108 L389,111 L389,125 L382,125 L382,90 Z" fill="#000000"/>
    <path d="M409,90 L417,90 L417,119 L432,119 L432,125 L409,125 L409,90 Z" fill="#000000"/>
    <path d="M434,90 L443,90 L447,115 L451,90 L459,90 L463,115 L467,90 L475,90 L468,125 L459,125 L455,102 L451,125 L442,125 L434,90 Z" fill="#000000"/>
    <path d="M477,90 L484,90 L484,125 L477,125 L477,90 Z" fill="#000000"/>
    <path d="M494,90 L502,90 L502,102 L512,102 L512,90 L520,90 L520,125 L512,125 L512,110 L502,110 L502,125 L494,125 L494,90 Z" fill="#000000"/>
    <path d="M524,108 C524,98 532,89 542,89 C552,89 560,98 560,108 C560,118 552,126 542,126 C532,126 524,118 524,108 Z M532,108 C532,114 536,118 542,118 C548,118 552,114 552,108 C552,102 548,97 542,97 C536,97 532,102 532,108 Z" fill="#000000"/>
    
    <!-- "Parcel" text -->
    <path d="M358,130 L366,130 L366,142 L374,130 L382,130 L374,142 L384,165 L376,165 L368,148 L366,151 L366,165 L358,165 L358,130 Z" fill="#000000"/>
    <path d="M386,130 L402,130 C402,130 410,130 410,138 C410,146 402,146 402,146 L394,146 L394,165 L386,165 L386,130 Z M394,140 L402,140 C402,140 404,140 404,138 C404,136 402,136 402,136 L394,136 L394,140 Z" fill="#000000"/>
    <path d="M414,130 L421,130 L421,148 L431,148 L431,130 L439,130 L439,165 L431,165 L431,155 L421,155 L421,165 L414,165 L414,130 Z" fill="#000000"/>
    <path d="M444,130 L455,130 C455,130 461,130 464,133 C467,136 467,138 467,142 C467,146 466,148 464,150 C462,152 458,153 455,153 L452,153 L452,165 L444,165 L444,130 Z M452,145 L455,145 C455,145 459,145 459,142 C459,139 455,139 455,139 L452,139 L452,145 Z" fill="#000000"/>
    <path d="M471,130 L486,130 C486,130 494,130 494,138 C494,146 486,146 486,146 L479,146 L479,165 L471,165 L471,130 Z M479,140 L486,140 C486,140 487,140 487,138 C487,136 486,136 486,136 L479,136 L479,140 Z" fill="#000000"/>
    <path d="M497,148 C497,137 506,129 517,129 C528,129 537,137 537,148 C537,159 528,166 517,166 C506,166 497,159 497,148 Z M505,148 C505,154 510,159 517,159 C524,159 529,154 529,148 C529,142 524,136 517,136 C510,136 505,142 505,148 Z" fill="#000000"/>
    <path d="M541,130 L549,130 L549,165 L541,165 L541,130 Z" fill="#000000"/>
  </g>
</svg>