<?xml version="1.0" encoding="UTF-8" standalone="no"?>
<svg xmlns="http://www.w3.org/2000/svg" viewBox="0 0 600 200" width="600" height="200">
  <!-- P letter only (black with white inner part) -->
  <path d="M150,100 C150,65 190,63 190,63 L230,63 C230,63 260,65 260,85 C260,105 235,107 230,107 L190,107 L190,150 L150,150 L150,100 Z" fill="#000000"/>
  <path d="M190,107 L190,90 L218,90 C218,90 225,90 225,98 C225,107 218,107 218,107 L190,107 Z" fill="#FFFFFF"/>

  <!-- Priority text -->
  <path d="M280,70 L290,70 C290,70 300,70 300,80 C300,90 290,90 290,90 L280,90 L280,105 L270,105 L270,70 L280,70 Z M280,82 L290,82 C290,82 294,82 294,80 C294,78 290,78 290,78 L280,78 L280,82 Z" fill="#000000"/>
  <path d="M305,70 L315,70 L315,80 L323,70 L335,70 L323,80 L333,105 L323,105 L316,88 L315,91 L315,105 L305,105 L305,70 Z" fill="#000000"/>
  <path d="M340,70 L350,70 L350,96 L365,96 L365,105 L340,105 L340,70 Z" fill="#000000"/>
  <path d="M370,70 L380,70 L383,95 L386,70 L396,70 L399,95 L402,70 L412,70 L406,105 L396,105 L392,82 L388,105 L378,105 L370,70 Z" fill="#000000"/>
  <path d="M420,70 L430,70 L430,105 L420,105 L420,70 Z" fill="#000000"/>
  <path d="M435,70 L445,70 L445,82 L455,82 L455,70 L465,70 L465,105 L455,105 L455,90 L445,90 L445,105 L435,105 L435,70 Z" fill="#000000"/>
  <path d="M470,88 C470,78 480,69 490,69 C500,69 510,78 510,88 C510,98 500,106 490,106 C480,106 470,98 470,88 Z M480,88 C480,94 484,98 490,98 C496,98 500,94 500,88 C500,82 496,77 490,77 C484,77 480,82 480,88 Z" fill="#000000"/>

  <!-- Parcel text -->
  <path d="M280,110 L290,110 L290,122 L298,110 L310,110 L298,122 L308,145 L296,145 L290,128 L290,131 L290,145 L280,145 L280,110 Z" fill="#000000"/>
  <path d="M315,110 L335,110 C335,110 345,110 345,118 C345,126 335,126 335,126 L325,126 L325,145 L315,145 L315,110 Z M325,120 L335,120 C335,120 337,120 337,118 C337,116 335,116 335,116 L325,116 L325,120 Z" fill="#000000"/>
  <path d="M350,110 L360,110 L360,128 L370,128 L370,110 L380,110 L380,145 L370,145 L370,135 L360,135 L360,145 L350,145 L350,110 Z" fill="#000000"/>
  <path d="M390,110 L410,110 C410,110 416,110 419,113 C422,116 422,118 422,122 C422,126 421,128 419,130 C417,132 413,133 410,133 L400,133 L400,145 L390,145 L390,110 Z M400,125 L410,125 C410,125 414,125 414,122 C414,119 410,119 410,119 L400,119 L400,125 Z" fill="#000000"/>
  <path d="M430,110 L450,110 C450,110 460,110 460,118 C460,126 450,126 450,126 L440,126 L440,145 L430,145 L430,110 Z M440,120 L450,120 C450,120 452,120 452,118 C452,116 450,116 450,116 L440,116 L440,120 Z" fill="#000000"/>
  <path d="M465,128 C465,117 475,109 485,109 C495,109 505,117 505,128 C505,139 495,146 485,146 C475,146 465,139 465,128 Z M475,128 C475,134 480,139 485,139 C490,139 495,134 495,128 C495,122 490,116 485,116 C480,116 475,122 475,128 Z" fill="#000000"/>
  <path d="M510,110 L520,110 L520,145 L510,145 L510,110 Z" fill="#000000"/>
</svg>